<?xml version="1.0" encoding="utf-8"?>
<!-- Generator: Adobe Illustrator 18.1.1, SVG Export Plug-In . SVG Version: 6.00 Build 0)  -->
<svg version="1.1" id="Layer_1" xmlns:sketch="http://www.bohemiancoding.com/sketch/ns"
	 xmlns="http://www.w3.org/2000/svg" xmlns:xlink="http://www.w3.org/1999/xlink" x="0px" y="0px" viewBox="6998.7 437.2 26.5 26.5"
	 enable-background="new 6998.7 437.2 26.5 26.5" xml:space="preserve">
<g enable-background="new    ">
	<path fill="#F4F4F4" d="M7024.6,460.1l-3,3c-0.4,0.4-1,0.6-1.5,0.6s-1.1-0.2-1.5-0.6l-6.6-6.6l-6.6,6.6c-0.4,0.4-1,0.6-1.5,0.6
		s-1.1-0.2-1.5-0.6l-3-3c-0.4-0.4-0.6-1-0.6-1.5c0-0.6,0.2-1.1,0.6-1.5l6.6-6.6l-6.6-6.6c-0.4-0.4-0.6-1-0.6-1.5
		c0-0.6,0.2-1.1,0.6-1.5l3-3c0.4-0.4,1-0.6,1.5-0.6s1.1,0.2,1.5,0.6l6.6,6.6l6.6-6.6c0.4-0.4,1-0.6,1.5-0.6s1.1,0.2,1.5,0.6l3,3
		c0.4,0.4,0.6,1,0.6,1.5c0,0.6-0.2,1.1-0.6,1.5l-6.6,6.6l6.6,6.6c0.4,0.4,0.6,1,0.6,1.5C7025.3,459.1,7025,459.7,7024.6,460.1z"/>
</g>
</svg>
