<?xml version="1.0" encoding="utf-8"?>
<!-- Generator: Adobe Illustrator 18.1.1, SVG Export Plug-In . SVG Version: 6.00 Build 0)  -->
<svg version="1.1" id="Layer_1" xmlns:sketch="http://www.bohemiancoding.com/sketch/ns"
	 xmlns="http://www.w3.org/2000/svg" xmlns:xlink="http://www.w3.org/1999/xlink" x="0px" y="0px" viewBox="3312 -656.5 18.2 17.9"
	 enable-background="new 3312 -656.5 18.2 17.9" xml:space="preserve">
<g id="logo" transform="translate(546.000000, 0.828571)" sketch:type="MSShapeGroup">
	<path id="Fill-1" fill="#FCC92F" d="M2671.8-653.1l0.8-0.9l-14.2-13.8l-14.1,14.6H2671.8"/>
	<path id="Fill-2" fill="#F9DA7E" d="M2637.5-646.2l14.1,13.6l13.2-13.6H2637.5"/>
	<path id="Fill-3" fill="#9B9B9B" d="M2678.5-653.1l0.5-0.5l-14.2-13.8l-13.8,14.3H2678.5"/>
	<path id="Fill-4" fill="#BEBEBE" d="M2644-646.2l-0.2,0.3l14.2,13.7l13.5-14H2644"/>
	<path id="Fill-5" fill="#8E8E8E" d="M2650.2-646.2l-0.2,0.3l14.2,13.7l13.5-14H2650.2"/>
	<path id="Fill-6" fill="#4A4A4A" d="M2684.7-653.1l0.5-0.5l-14.2-13.8l-13.8,14.3H2684.7"/>
</g>
<path id="fa-codepen-copy-4" sketch:type="MSShapeGroup" fill="#FCC92F" d="M3314.2-644.7l2.7-1.8l3.4,2.3v3.6L3314.2-644.7z
	 M3313.6-646.2v-2.6l2,1.3L3313.6-646.2z M3321.9-640.6v-3.6l3.4-2.3l2.7,1.8L3321.9-640.6z M3321.1-645.6l-2.8-1.8l2.8-1.8l2.8,1.8
	L3321.1-645.6z M3316.9-648.4l-2.7-1.8l6.1-4.1v3.6L3316.9-648.4z M3326.7-647.5l2-1.3v2.6L3326.7-647.5z M3325.3-648.4l-3.4-2.3
	v-3.6l6.1,4.1L3325.3-648.4z M3330.2-650.3c0-0.3-0.1-0.5-0.3-0.7l-8.3-5.5c-0.1-0.1-0.3-0.1-0.4-0.1s-0.3,0.1-0.4,0.1l-8.3,5.5
	c-0.2,0.1-0.3,0.4-0.3,0.7v5.5c0,0.3,0.1,0.5,0.3,0.7l8.3,5.5c0.1,0.1,0.3,0.1,0.4,0.1s0.3-0.1,0.4-0.1l8.3-5.5
	c0.2-0.1,0.3-0.4,0.3-0.7V-650.3z"/>
</svg>
